<svg width="41" height="40" viewBox="0 0 41 40" fill="none" xmlns="http://www.w3.org/2000/svg">
<g clip-path="url(#clip0_222_2998)">
<path d="M20.25 40C31.2957 40 40.25 31.0457 40.25 20C40.25 8.9543 31.2957 0 20.25 0C9.2043 0 0.25 8.9543 0.25 20C0.25 31.0457 9.2043 40 20.25 40Z" fill="#0052FF"/>
<path fill-rule="evenodd" clip-rule="evenodd" d="M6.1875 20C6.1875 27.7665 12.4835 34.0625 20.25 34.0625C28.0165 34.0625 34.3125 27.7665 34.3125 20C34.3125 12.2335 28.0165 5.9375 20.25 5.9375C12.4835 5.9375 6.1875 12.2335 6.1875 20ZM16.6562 15.4688C16.1385 15.4688 15.7188 15.8885 15.7188 16.4062V23.5938C15.7188 24.1115 16.1385 24.5312 16.6562 24.5312H23.8438C24.3615 24.5312 24.7812 24.1115 24.7812 23.5938V16.4062C24.7812 15.8885 24.3615 15.4688 23.8438 15.4688H16.6562Z" fill="white"/>
</g>
<defs>
<clipPath id="clip0_222_2998">
<rect width="40" height="40" fill="white" transform="translate(0.25)"/>
</clipPath>
</defs>
</svg>
