<svg width="21" height="20" viewBox="0 0 21 20" fill="none" xmlns="http://www.w3.org/2000/svg">
<path fill-rule="evenodd" clip-rule="evenodd" d="M2.28882 4.375C2.28882 4.02982 2.56864 3.75 2.91382 3.75H17.9138C18.259 3.75 18.5388 4.02982 18.5388 4.375V15C18.5388 15.3315 18.4071 15.6495 18.1727 15.8839C17.9383 16.1183 17.6203 16.25 17.2888 16.25H3.53882C3.2073 16.25 2.88936 16.1183 2.65494 15.8839C2.42051 15.6495 2.28882 15.3315 2.28882 15V4.375ZM3.53882 5V15H17.2888V5H3.53882Z" fill="white"/>
<path fill-rule="evenodd" clip-rule="evenodd" d="M2.4531 3.95268C2.68635 3.69823 3.0817 3.68104 3.33615 3.91428L10.4138 10.4021L17.4915 3.91428C17.7459 3.68104 18.1413 3.69823 18.3745 3.95268C18.6078 4.20713 18.5906 4.60248 18.3361 4.83573L10.8362 11.7107C10.5972 11.9298 10.2304 11.9298 9.99149 11.7107L2.49149 4.83573C2.23704 4.60248 2.21986 4.20713 2.4531 3.95268Z" fill="white"/>
</svg>
