<svg width="21" height="20" viewBox="0 0 21 20" fill="none" xmlns="http://www.w3.org/2000/svg">
<path fill-rule="evenodd" clip-rule="evenodd" d="M2.58179 4.375C2.58179 4.02982 2.86161 3.75 3.20679 3.75H18.2068C18.552 3.75 18.8318 4.02982 18.8318 4.375V15C18.8318 15.3315 18.7001 15.6495 18.4657 15.8839C18.2312 16.1183 17.9133 16.25 17.5818 16.25H3.83179C3.50027 16.25 3.18232 16.1183 2.9479 15.8839C2.71348 15.6495 2.58179 15.3315 2.58179 15V4.375ZM3.83179 5V15H17.5818V5H3.83179Z" fill="white"/>
<path fill-rule="evenodd" clip-rule="evenodd" d="M2.74607 3.95268C2.97931 3.69823 3.37467 3.68104 3.62912 3.91428L10.7068 10.4021L17.7845 3.91428C18.0389 3.68104 18.4343 3.69823 18.6675 3.95268C18.9008 4.20713 18.8836 4.60248 18.6291 4.83573L11.1291 11.7107C10.8902 11.9298 10.5234 11.9298 10.2845 11.7107L2.78446 4.83573C2.53001 4.60248 2.51282 4.20713 2.74607 3.95268Z" fill="white"/>
</svg>
