<svg width="244" height="32" viewBox="0 0 244 32" fill="none" xmlns="http://www.w3.org/2000/svg">
<path fill-rule="evenodd" clip-rule="evenodd" d="M6.5 12.4502C7.05228 12.4502 7.5 12.8979 7.5 13.4502V26.0002H25.5V13.4502C25.5 12.8979 25.9477 12.4502 26.5 12.4502C27.0523 12.4502 27.5 12.8979 27.5 13.4502V26.0002C27.5 26.5306 27.2893 27.0393 26.9142 27.4144C26.5391 27.7895 26.0304 28.0002 25.5 28.0002H7.5C6.96957 28.0002 6.46086 27.7895 6.08579 27.4144C5.71071 27.0393 5.5 26.5306 5.5 26.0002V13.4502C5.5 12.8979 5.94772 12.4502 6.5 12.4502Z" fill="#A259FF"/>
<path fill-rule="evenodd" clip-rule="evenodd" d="M3.5 5C3.5 4.44772 3.94772 4 4.5 4H28.5C29.0523 4 29.5 4.44772 29.5 5C29.5 5.55228 29.0523 6 28.5 6H4.5C3.94772 6 3.5 5.55228 3.5 5Z" fill="#A259FF"/>
<path fill-rule="evenodd" clip-rule="evenodd" d="M4.5 7C5.05228 7 5.5 7.44772 5.5 8V10C5.5 10.7956 5.81607 11.5587 6.37868 12.1213C6.94129 12.6839 7.70435 13 8.5 13C9.29565 13 10.0587 12.6839 10.6213 12.1213C11.1839 11.5587 11.5 10.7956 11.5 10V8C11.5 7.44772 11.9477 7 12.5 7C13.0523 7 13.5 7.44772 13.5 8V10C13.5 11.3261 12.9732 12.5979 12.0355 13.5355C11.0979 14.4732 9.82608 15 8.5 15C7.17392 15 5.90215 14.4732 4.96447 13.5355C4.02678 12.5979 3.5 11.3261 3.5 10V8C3.5 7.44772 3.94772 7 4.5 7Z" fill="#A259FF"/>
<path fill-rule="evenodd" clip-rule="evenodd" d="M12.5 7C13.0523 7 13.5 7.44772 13.5 8V10C13.5 10.7956 13.8161 11.5587 14.3787 12.1213C14.9413 12.6839 15.7044 13 16.5 13C17.2956 13 18.0587 12.6839 18.6213 12.1213C19.1839 11.5587 19.5 10.7956 19.5 10V8C19.5 7.44772 19.9477 7 20.5 7C21.0523 7 21.5 7.44772 21.5 8V10C21.5 11.3261 20.9732 12.5979 20.0355 13.5355C19.0979 14.4732 17.8261 15 16.5 15C15.1739 15 13.9021 14.4732 12.9645 13.5355C12.0268 12.5979 11.5 11.3261 11.5 10V8C11.5 7.44772 11.9477 7 12.5 7Z" fill="#A259FF"/>
<path fill-rule="evenodd" clip-rule="evenodd" d="M20.5 7C21.0523 7 21.5 7.44772 21.5 8V10C21.5 10.7956 21.8161 11.5587 22.3787 12.1213C22.9413 12.6839 23.7044 13 24.5 13C25.2956 13 26.0587 12.6839 26.6213 12.1213C27.1839 11.5587 27.5 10.7956 27.5 10V8C27.5 7.44772 27.9477 7 28.5 7C29.0523 7 29.5 7.44772 29.5 8V10C29.5 11.3261 28.9732 12.5979 28.0355 13.5355C27.0979 14.4732 25.8261 15 24.5 15C23.1739 15 21.9021 14.4732 20.9645 13.5355C20.0268 12.5979 19.5 11.3261 19.5 10V8C19.5 7.44772 19.9477 7 20.5 7Z" fill="#A259FF"/>
<path d="M51.98 22.5476H52.376V8.59961H55.28V23.9996H49.604L47.8 10.0516H47.404V23.9996H44.5V8.59961H50.176L51.98 22.5476Z" fill="white"/>
<path d="M58.5647 8.59961H68.4207V11.3716H61.4687V14.8916H68.2887V17.6636H61.4687V23.9996H58.5647V8.59961Z" fill="white"/>
<path d="M71.2874 8.59961H82.3754V11.3716H78.2834V23.9996H75.3794V11.3716H71.2874V8.59961Z" fill="white"/>
<path d="M97.5248 8.59961H102.629L103.509 20.1716V22.4156H104.037V20.1716L104.917 8.59961H110.021V23.9996H107.381V13.7036L107.645 10.1836H107.117L105.973 23.9996H101.617L100.429 10.1836H99.9008L100.165 13.7036V23.9996H97.5248V8.59961Z" fill="white"/>
<path d="M119.29 22.4156C118.996 23.1049 118.586 23.5963 118.058 23.8896C117.53 24.1683 116.914 24.3076 116.21 24.3076C115.55 24.3076 114.926 24.1829 114.34 23.9336C113.768 23.6843 113.262 23.3176 112.822 22.8336C112.382 22.3496 112.03 21.7629 111.766 21.0736C111.516 20.3843 111.392 19.5996 111.392 18.7196V18.3676C111.392 17.5023 111.516 16.7249 111.766 16.0356C112.015 15.3463 112.352 14.7596 112.778 14.2756C113.203 13.7916 113.694 13.4249 114.252 13.1756C114.824 12.9116 115.432 12.7796 116.078 12.7796C116.855 12.7796 117.478 12.9116 117.948 13.1756C118.432 13.4396 118.813 13.8503 119.092 14.4076H119.488V13.0876H122.26V20.6996C122.26 21.1396 122.458 21.3596 122.854 21.3596H123.272V23.9996H121.38C120.881 23.9996 120.47 23.8529 120.148 23.5596C119.84 23.2663 119.686 22.8849 119.686 22.4156H119.29ZM116.826 21.6676C117.632 21.6676 118.278 21.4036 118.762 20.8756C119.246 20.3329 119.488 19.5996 119.488 18.6756V18.4116C119.488 17.4876 119.246 16.7616 118.762 16.2336C118.278 15.6909 117.632 15.4196 116.826 15.4196C116.019 15.4196 115.374 15.6909 114.89 16.2336C114.406 16.7616 114.164 17.4876 114.164 18.4116V18.6756C114.164 19.5996 114.406 20.3329 114.89 20.8756C115.374 21.4036 116.019 21.6676 116.826 21.6676Z" fill="white"/>
<path d="M125.17 13.0876H129.79V14.6716H130.186C130.392 14.0703 130.736 13.6083 131.22 13.2856C131.719 12.9483 132.313 12.7796 133.002 12.7796C134.088 12.7796 134.96 13.1243 135.62 13.8136C136.28 14.4883 136.61 15.5223 136.61 16.9156V17.3996L133.75 17.6636V17.3556C133.75 16.7543 133.596 16.2776 133.288 15.9256C132.98 15.5589 132.518 15.3756 131.902 15.3756C131.286 15.3756 130.802 15.5883 130.45 16.0136C130.098 16.4389 129.922 17.0476 129.922 17.8396V21.3596H132.43V23.9996H124.906V21.3596H127.15V15.7276H125.17V13.0876Z" fill="white"/>
<path d="M142.821 17.0916H143.349L146.253 13.0876H149.289V13.2196L145.769 18.2136V18.6096L149.641 23.8676V23.9996H146.473L143.349 19.7316H142.821V23.9996H140.049V8.59961H142.821V17.0916Z" fill="white"/>
<path d="M155.082 19.4456C155.096 19.7683 155.17 20.0689 155.302 20.3476C155.448 20.6116 155.639 20.8463 155.874 21.0516C156.123 21.2423 156.402 21.3963 156.71 21.5136C157.032 21.6163 157.37 21.6676 157.722 21.6676C158.411 21.6676 158.939 21.5503 159.306 21.3156C159.672 21.0663 159.936 20.7729 160.098 20.4356L162.474 21.7556C162.342 22.0343 162.158 22.3276 161.924 22.6356C161.689 22.9289 161.381 23.2003 161 23.4496C160.633 23.6989 160.178 23.9043 159.636 24.0656C159.108 24.2269 158.484 24.3076 157.766 24.3076C156.944 24.3076 156.196 24.1756 155.522 23.9116C154.847 23.6476 154.26 23.2663 153.762 22.7676C153.278 22.2689 152.896 21.6603 152.618 20.9416C152.354 20.2229 152.222 19.4089 152.222 18.4996V18.3676C152.222 17.5316 152.361 16.7689 152.64 16.0796C152.933 15.3903 153.329 14.8036 153.828 14.3196C154.326 13.8356 154.906 13.4616 155.566 13.1976C156.24 12.9189 156.959 12.7796 157.722 12.7796C158.66 12.7796 159.467 12.9483 160.142 13.2856C160.816 13.6083 161.374 14.0263 161.814 14.5396C162.254 15.0383 162.576 15.5956 162.782 16.2116C162.987 16.8129 163.09 17.3996 163.09 17.9716V19.4456H155.082ZM157.7 15.2876C156.996 15.2876 156.424 15.4709 155.984 15.8376C155.544 16.1896 155.258 16.6003 155.126 17.0696H160.274C160.186 16.5563 159.907 16.1309 159.438 15.7936C158.983 15.4563 158.404 15.2876 157.7 15.2876Z" fill="white"/>
<path d="M165.802 13.0876H169.036V8.59961H171.808V13.0876H175.746V15.7276H171.808V20.6996C171.808 21.1396 172.006 21.3596 172.402 21.3596H175.35V23.9996H170.73C170.232 23.9996 169.821 23.8383 169.498 23.5156C169.19 23.1929 169.036 22.7823 169.036 22.2836V15.7276H165.802V13.0876Z" fill="white"/>
<path d="M181.781 28.3996H179.009V13.0876H181.781V14.6716H182.177C182.47 14.0703 182.896 13.6083 183.453 13.2856C184.01 12.9483 184.722 12.7796 185.587 12.7796C186.232 12.7796 186.841 12.9043 187.413 13.1536C188 13.4029 188.506 13.7696 188.931 14.2536C189.371 14.7229 189.716 15.3023 189.965 15.9916C190.229 16.6809 190.361 17.4656 190.361 18.3456V18.7416C190.361 19.6363 190.236 20.4283 189.987 21.1176C189.738 21.8069 189.4 22.3936 188.975 22.8776C188.55 23.3469 188.044 23.7063 187.457 23.9556C186.885 24.1903 186.262 24.3076 185.587 24.3076C185.088 24.3076 184.656 24.2563 184.289 24.1536C183.922 24.0509 183.6 23.9116 183.321 23.7356C183.057 23.5596 182.83 23.3616 182.639 23.1416C182.463 22.9069 182.309 22.6649 182.177 22.4156H181.781V28.3996ZM184.685 21.6676C185.55 21.6676 186.247 21.4036 186.775 20.8756C187.318 20.3329 187.589 19.5996 187.589 18.6756V18.4116C187.589 17.4876 187.318 16.7616 186.775 16.2336C186.247 15.6909 185.55 15.4196 184.685 15.4196C183.82 15.4196 183.116 15.6983 182.573 16.2556C182.045 16.7983 181.781 17.5169 181.781 18.4116V18.6756C181.781 19.5703 182.045 20.2963 182.573 20.8536C183.116 21.3963 183.82 21.6676 184.685 21.6676Z" fill="white"/>
<path d="M192.986 21.3596H196.814V11.2396H193.118V8.59961H199.586V21.3596H203.15V23.9996H192.986V21.3596Z" fill="white"/>
<path d="M213.584 22.4156C213.291 23.1049 212.88 23.5963 212.352 23.8896C211.824 24.1683 211.208 24.3076 210.504 24.3076C209.844 24.3076 209.221 24.1829 208.634 23.9336C208.062 23.6843 207.556 23.3176 207.116 22.8336C206.676 22.3496 206.324 21.7629 206.06 21.0736C205.811 20.3843 205.686 19.5996 205.686 18.7196V18.3676C205.686 17.5023 205.811 16.7249 206.06 16.0356C206.31 15.3463 206.647 14.7596 207.072 14.2756C207.498 13.7916 207.989 13.4249 208.546 13.1756C209.118 12.9116 209.727 12.7796 210.372 12.7796C211.15 12.7796 211.773 12.9116 212.242 13.1756C212.726 13.4396 213.108 13.8503 213.386 14.4076H213.782V13.0876H216.554V20.6996C216.554 21.1396 216.752 21.3596 217.148 21.3596H217.566V23.9996H215.674C215.176 23.9996 214.765 23.8529 214.442 23.5596C214.134 23.2663 213.98 22.8849 213.98 22.4156H213.584ZM211.12 21.6676C211.927 21.6676 212.572 21.4036 213.056 20.8756C213.54 20.3329 213.782 19.5996 213.782 18.6756V18.4116C213.782 17.4876 213.54 16.7616 213.056 16.2336C212.572 15.6909 211.927 15.4196 211.12 15.4196C210.314 15.4196 209.668 15.6909 209.184 16.2336C208.7 16.7616 208.458 17.4876 208.458 18.4116V18.6756C208.458 19.5996 208.7 20.3329 209.184 20.8756C209.668 21.4036 210.314 21.6676 211.12 21.6676Z" fill="white"/>
<path d="M230.641 19.9956C230.392 21.2863 229.798 22.3276 228.859 23.1196C227.935 23.9116 226.696 24.3076 225.141 24.3076C224.334 24.3076 223.579 24.1829 222.875 23.9336C222.186 23.6843 221.584 23.3249 221.071 22.8556C220.558 22.3863 220.154 21.8069 219.861 21.1176C219.568 20.4283 219.421 19.6436 219.421 18.7636V18.4996C219.421 17.6196 219.568 16.8276 219.861 16.1236C220.154 15.4196 220.558 14.8183 221.071 14.3196C221.599 13.8209 222.208 13.4396 222.897 13.1756C223.601 12.9116 224.349 12.7796 225.141 12.7796C226.666 12.7796 227.898 13.1756 228.837 13.9676C229.79 14.7596 230.392 15.8009 230.641 17.0916L227.913 17.7956C227.825 17.1503 227.546 16.5929 227.077 16.1236C226.608 15.6543 225.948 15.4196 225.097 15.4196C224.701 15.4196 224.327 15.4929 223.975 15.6396C223.623 15.7863 223.315 15.9989 223.051 16.2776C222.787 16.5416 222.574 16.8716 222.413 17.2676C222.266 17.6489 222.193 18.0816 222.193 18.5656V18.6976C222.193 19.1816 222.266 19.6143 222.413 19.9956C222.574 20.3623 222.787 20.6703 223.051 20.9196C223.315 21.1689 223.623 21.3596 223.975 21.4916C224.327 21.6089 224.701 21.6676 225.097 21.6676C225.948 21.6676 226.593 21.4549 227.033 21.0296C227.488 20.6043 227.781 20.0323 227.913 19.3136L230.641 19.9956Z" fill="white"/>
<path d="M235.906 19.4456C235.921 19.7683 235.994 20.0689 236.126 20.3476C236.273 20.6116 236.463 20.8463 236.698 21.0516C236.947 21.2423 237.226 21.3963 237.534 21.5136C237.857 21.6163 238.194 21.6676 238.546 21.6676C239.235 21.6676 239.763 21.5503 240.13 21.3156C240.497 21.0663 240.761 20.7729 240.922 20.4356L243.298 21.7556C243.166 22.0343 242.983 22.3276 242.748 22.6356C242.513 22.9289 242.205 23.2003 241.824 23.4496C241.457 23.6989 241.003 23.9043 240.46 24.0656C239.932 24.2269 239.309 24.3076 238.59 24.3076C237.769 24.3076 237.021 24.1756 236.346 23.9116C235.671 23.6476 235.085 23.2663 234.586 22.7676C234.102 22.2689 233.721 21.6603 233.442 20.9416C233.178 20.2229 233.046 19.4089 233.046 18.4996V18.3676C233.046 17.5316 233.185 16.7689 233.464 16.0796C233.757 15.3903 234.153 14.8036 234.652 14.3196C235.151 13.8356 235.73 13.4616 236.39 13.1976C237.065 12.9189 237.783 12.7796 238.546 12.7796C239.485 12.7796 240.291 12.9483 240.966 13.2856C241.641 13.6083 242.198 14.0263 242.638 14.5396C243.078 15.0383 243.401 15.5956 243.606 16.2116C243.811 16.8129 243.914 17.3996 243.914 17.9716V19.4456H235.906ZM238.524 15.2876C237.82 15.2876 237.248 15.4709 236.808 15.8376C236.368 16.1896 236.082 16.6003 235.95 17.0696H241.098C241.01 16.5563 240.731 16.1309 240.262 15.7936C239.807 15.4563 239.228 15.2876 238.524 15.2876Z" fill="white"/>
</svg>
