<svg width="245" height="32" viewBox="0 0 245 32" fill="none" xmlns="http://www.w3.org/2000/svg">
<path fill-rule="evenodd" clip-rule="evenodd" d="M6.79297 12.4502C7.34525 12.4502 7.79297 12.8979 7.79297 13.4502V26.0002H25.793V13.4502C25.793 12.8979 26.2407 12.4502 26.793 12.4502C27.3453 12.4502 27.793 12.8979 27.793 13.4502V26.0002C27.793 26.5306 27.5823 27.0393 27.2072 27.4144C26.8321 27.7895 26.3234 28.0002 25.793 28.0002H7.79297C7.26254 28.0002 6.75383 27.7895 6.37876 27.4144C6.00368 27.0393 5.79297 26.5306 5.79297 26.0002V13.4502C5.79297 12.8979 6.24068 12.4502 6.79297 12.4502Z" fill="#A259FF"/>
<path fill-rule="evenodd" clip-rule="evenodd" d="M3.79297 5C3.79297 4.44772 4.24068 4 4.79297 4H28.793C29.3453 4 29.793 4.44772 29.793 5C29.793 5.55228 29.3453 6 28.793 6H4.79297C4.24068 6 3.79297 5.55228 3.79297 5Z" fill="#A259FF"/>
<path fill-rule="evenodd" clip-rule="evenodd" d="M4.79297 7C5.34525 7 5.79297 7.44772 5.79297 8V10C5.79297 10.7956 6.10904 11.5587 6.67165 12.1213C7.23426 12.6839 7.99732 13 8.79297 13C9.58862 13 10.3517 12.6839 10.9143 12.1213C11.4769 11.5587 11.793 10.7956 11.793 10V8C11.793 7.44772 12.2407 7 12.793 7C13.3453 7 13.793 7.44772 13.793 8V10C13.793 11.3261 13.2662 12.5979 12.3285 13.5355C11.3908 14.4732 10.1191 15 8.79297 15C7.46689 15 6.19512 14.4732 5.25743 13.5355C4.31975 12.5979 3.79297 11.3261 3.79297 10V8C3.79297 7.44772 4.24068 7 4.79297 7Z" fill="#A259FF"/>
<path fill-rule="evenodd" clip-rule="evenodd" d="M12.793 7C13.3453 7 13.793 7.44772 13.793 8V10C13.793 10.7956 14.109 11.5587 14.6716 12.1213C15.2343 12.6839 15.9973 13 16.793 13C17.5886 13 18.3517 12.6839 18.9143 12.1213C19.4769 11.5587 19.793 10.7956 19.793 10V8C19.793 7.44772 20.2407 7 20.793 7C21.3453 7 21.793 7.44772 21.793 8V10C21.793 11.3261 21.2662 12.5979 20.3285 13.5355C19.3908 14.4732 18.1191 15 16.793 15C15.4669 15 14.1951 14.4732 13.2574 13.5355C12.3198 12.5979 11.793 11.3261 11.793 10V8C11.793 7.44772 12.2407 7 12.793 7Z" fill="#A259FF"/>
<path fill-rule="evenodd" clip-rule="evenodd" d="M20.793 7C21.3453 7 21.793 7.44772 21.793 8V10C21.793 10.7956 22.109 11.5587 22.6716 12.1213C23.2343 12.6839 23.9973 13 24.793 13C25.5886 13 26.3517 12.6839 26.9143 12.1213C27.4769 11.5587 27.793 10.7956 27.793 10V8C27.793 7.44772 28.2407 7 28.793 7C29.3453 7 29.793 7.44772 29.793 8V10C29.793 11.3261 29.2662 12.5979 28.3285 13.5355C27.3908 14.4732 26.1191 15 24.793 15C23.4669 15 22.1951 14.4732 21.2574 13.5355C20.3198 12.5979 19.793 11.3261 19.793 10V8C19.793 7.44772 20.2407 7 20.793 7Z" fill="#A259FF"/>
<path d="M52.273 22.5476H52.669V8.59961H55.573V23.9996H49.897L48.093 10.0516H47.697V23.9996H44.793V8.59961H50.469L52.273 22.5476Z" fill="white"/>
<path d="M58.8577 8.59961H68.7137V11.3716H61.7617V14.8916H68.5817V17.6636H61.7617V23.9996H58.8577V8.59961Z" fill="white"/>
<path d="M71.5804 8.59961H82.6684V11.3716H78.5764V23.9996H75.6724V11.3716H71.5804V8.59961Z" fill="white"/>
<path d="M97.8178 8.59961H102.922L103.802 20.1716V22.4156H104.33V20.1716L105.21 8.59961H110.314V23.9996H107.674V13.7036L107.938 10.1836H107.41L106.266 23.9996H101.91L100.722 10.1836H100.194L100.458 13.7036V23.9996H97.8178V8.59961Z" fill="white"/>
<path d="M119.582 22.4156C119.289 23.1049 118.878 23.5963 118.35 23.8896C117.822 24.1683 117.206 24.3076 116.502 24.3076C115.842 24.3076 115.219 24.1829 114.632 23.9336C114.06 23.6843 113.554 23.3176 113.114 22.8336C112.674 22.3496 112.322 21.7629 112.058 21.0736C111.809 20.3843 111.684 19.5996 111.684 18.7196V18.3676C111.684 17.5023 111.809 16.7249 112.058 16.0356C112.308 15.3463 112.645 14.7596 113.07 14.2756C113.496 13.7916 113.987 13.4249 114.544 13.1756C115.116 12.9116 115.725 12.7796 116.37 12.7796C117.148 12.7796 117.771 12.9116 118.24 13.1756C118.724 13.4396 119.106 13.8503 119.384 14.4076H119.78V13.0876H122.552V20.6996C122.552 21.1396 122.75 21.3596 123.146 21.3596H123.564V23.9996H121.672C121.174 23.9996 120.763 23.8529 120.44 23.5596C120.132 23.2663 119.978 22.8849 119.978 22.4156H119.582ZM117.118 21.6676C117.925 21.6676 118.57 21.4036 119.054 20.8756C119.538 20.3329 119.78 19.5996 119.78 18.6756V18.4116C119.78 17.4876 119.538 16.7616 119.054 16.2336C118.57 15.6909 117.925 15.4196 117.118 15.4196C116.312 15.4196 115.666 15.6909 115.182 16.2336C114.698 16.7616 114.456 17.4876 114.456 18.4116V18.6756C114.456 19.5996 114.698 20.3329 115.182 20.8756C115.666 21.4036 116.312 21.6676 117.118 21.6676Z" fill="white"/>
<path d="M125.463 13.0876H130.083V14.6716H130.479C130.685 14.0703 131.029 13.6083 131.513 13.2856C132.012 12.9483 132.606 12.7796 133.295 12.7796C134.381 12.7796 135.253 13.1243 135.913 13.8136C136.573 14.4883 136.903 15.5223 136.903 16.9156V17.3996L134.043 17.6636V17.3556C134.043 16.7543 133.889 16.2776 133.581 15.9256C133.273 15.5589 132.811 15.3756 132.195 15.3756C131.579 15.3756 131.095 15.5883 130.743 16.0136C130.391 16.4389 130.215 17.0476 130.215 17.8396V21.3596H132.723V23.9996H125.199V21.3596H127.443V15.7276H125.463V13.0876Z" fill="white"/>
<path d="M143.114 17.0916H143.642L146.546 13.0876H149.582V13.2196L146.062 18.2136V18.6096L149.934 23.8676V23.9996H146.766L143.642 19.7316H143.114V23.9996H140.342V8.59961H143.114V17.0916Z" fill="white"/>
<path d="M155.375 19.4456C155.389 19.7683 155.463 20.0689 155.595 20.3476C155.741 20.6116 155.932 20.8463 156.167 21.0516C156.416 21.2423 156.695 21.3963 157.003 21.5136C157.325 21.6163 157.663 21.6676 158.015 21.6676C158.704 21.6676 159.232 21.5503 159.599 21.3156C159.965 21.0663 160.229 20.7729 160.391 20.4356L162.767 21.7556C162.635 22.0343 162.451 22.3276 162.217 22.6356C161.982 22.9289 161.674 23.2003 161.293 23.4496C160.926 23.6989 160.471 23.9043 159.929 24.0656C159.401 24.2269 158.777 24.3076 158.059 24.3076C157.237 24.3076 156.489 24.1756 155.815 23.9116C155.14 23.6476 154.553 23.2663 154.055 22.7676C153.571 22.2689 153.189 21.6603 152.911 20.9416C152.647 20.2229 152.515 19.4089 152.515 18.4996V18.3676C152.515 17.5316 152.654 16.7689 152.933 16.0796C153.226 15.3903 153.622 14.8036 154.121 14.3196C154.619 13.8356 155.199 13.4616 155.859 13.1976C156.533 12.9189 157.252 12.7796 158.015 12.7796C158.953 12.7796 159.76 12.9483 160.435 13.2856C161.109 13.6083 161.667 14.0263 162.107 14.5396C162.547 15.0383 162.869 15.5956 163.075 16.2116C163.28 16.8129 163.383 17.3996 163.383 17.9716V19.4456H155.375ZM157.993 15.2876C157.289 15.2876 156.717 15.4709 156.277 15.8376C155.837 16.1896 155.551 16.6003 155.419 17.0696H160.567C160.479 16.5563 160.2 16.1309 159.731 15.7936C159.276 15.4563 158.697 15.2876 157.993 15.2876Z" fill="white"/>
<path d="M166.095 13.0876H169.329V8.59961H172.101V13.0876H176.039V15.7276H172.101V20.6996C172.101 21.1396 172.299 21.3596 172.695 21.3596H175.643V23.9996H171.023C170.525 23.9996 170.114 23.8383 169.791 23.5156C169.483 23.1929 169.329 22.7823 169.329 22.2836V15.7276H166.095V13.0876Z" fill="white"/>
<path d="M182.074 28.3996H179.302V13.0876H182.074V14.6716H182.47C182.763 14.0703 183.189 13.6083 183.746 13.2856C184.303 12.9483 185.015 12.7796 185.88 12.7796C186.525 12.7796 187.134 12.9043 187.706 13.1536C188.293 13.4029 188.799 13.7696 189.224 14.2536C189.664 14.7229 190.009 15.3023 190.258 15.9916C190.522 16.6809 190.654 17.4656 190.654 18.3456V18.7416C190.654 19.6363 190.529 20.4283 190.28 21.1176C190.031 21.8069 189.693 22.3936 189.268 22.8776C188.843 23.3469 188.337 23.7063 187.75 23.9556C187.178 24.1903 186.555 24.3076 185.88 24.3076C185.381 24.3076 184.949 24.2563 184.582 24.1536C184.215 24.0509 183.893 23.9116 183.614 23.7356C183.35 23.5596 183.123 23.3616 182.932 23.1416C182.756 22.9069 182.602 22.6649 182.47 22.4156H182.074V28.3996ZM184.978 21.6676C185.843 21.6676 186.54 21.4036 187.068 20.8756C187.611 20.3329 187.882 19.5996 187.882 18.6756V18.4116C187.882 17.4876 187.611 16.7616 187.068 16.2336C186.54 15.6909 185.843 15.4196 184.978 15.4196C184.113 15.4196 183.409 15.6983 182.866 16.2556C182.338 16.7983 182.074 17.5169 182.074 18.4116V18.6756C182.074 19.5703 182.338 20.2963 182.866 20.8536C183.409 21.3963 184.113 21.6676 184.978 21.6676Z" fill="white"/>
<path d="M193.279 21.3596H197.107V11.2396H193.411V8.59961H199.879V21.3596H203.443V23.9996H193.279V21.3596Z" fill="white"/>
<path d="M213.877 22.4156C213.584 23.1049 213.173 23.5963 212.645 23.8896C212.117 24.1683 211.501 24.3076 210.797 24.3076C210.137 24.3076 209.514 24.1829 208.927 23.9336C208.355 23.6843 207.849 23.3176 207.409 22.8336C206.969 22.3496 206.617 21.7629 206.353 21.0736C206.104 20.3843 205.979 19.5996 205.979 18.7196V18.3676C205.979 17.5023 206.104 16.7249 206.353 16.0356C206.603 15.3463 206.94 14.7596 207.365 14.2756C207.791 13.7916 208.282 13.4249 208.839 13.1756C209.411 12.9116 210.02 12.7796 210.665 12.7796C211.443 12.7796 212.066 12.9116 212.535 13.1756C213.019 13.4396 213.401 13.8503 213.679 14.4076H214.075V13.0876H216.847V20.6996C216.847 21.1396 217.045 21.3596 217.441 21.3596H217.859V23.9996H215.967C215.469 23.9996 215.058 23.8529 214.735 23.5596C214.427 23.2663 214.273 22.8849 214.273 22.4156H213.877ZM211.413 21.6676C212.22 21.6676 212.865 21.4036 213.349 20.8756C213.833 20.3329 214.075 19.5996 214.075 18.6756V18.4116C214.075 17.4876 213.833 16.7616 213.349 16.2336C212.865 15.6909 212.22 15.4196 211.413 15.4196C210.607 15.4196 209.961 15.6909 209.477 16.2336C208.993 16.7616 208.751 17.4876 208.751 18.4116V18.6756C208.751 19.5996 208.993 20.3329 209.477 20.8756C209.961 21.4036 210.607 21.6676 211.413 21.6676Z" fill="white"/>
<path d="M230.934 19.9956C230.685 21.2863 230.091 22.3276 229.152 23.1196C228.228 23.9116 226.989 24.3076 225.434 24.3076C224.627 24.3076 223.872 24.1829 223.168 23.9336C222.479 23.6843 221.877 23.3249 221.364 22.8556C220.851 22.3863 220.447 21.8069 220.154 21.1176C219.861 20.4283 219.714 19.6436 219.714 18.7636V18.4996C219.714 17.6196 219.861 16.8276 220.154 16.1236C220.447 15.4196 220.851 14.8183 221.364 14.3196C221.892 13.8209 222.501 13.4396 223.19 13.1756C223.894 12.9116 224.642 12.7796 225.434 12.7796C226.959 12.7796 228.191 13.1756 229.13 13.9676C230.083 14.7596 230.685 15.8009 230.934 17.0916L228.206 17.7956C228.118 17.1503 227.839 16.5929 227.37 16.1236C226.901 15.6543 226.241 15.4196 225.39 15.4196C224.994 15.4196 224.62 15.4929 224.268 15.6396C223.916 15.7863 223.608 15.9989 223.344 16.2776C223.08 16.5416 222.867 16.8716 222.706 17.2676C222.559 17.6489 222.486 18.0816 222.486 18.5656V18.6976C222.486 19.1816 222.559 19.6143 222.706 19.9956C222.867 20.3623 223.08 20.6703 223.344 20.9196C223.608 21.1689 223.916 21.3596 224.268 21.4916C224.62 21.6089 224.994 21.6676 225.39 21.6676C226.241 21.6676 226.886 21.4549 227.326 21.0296C227.781 20.6043 228.074 20.0323 228.206 19.3136L230.934 19.9956Z" fill="white"/>
<path d="M236.199 19.4456C236.213 19.7683 236.287 20.0689 236.419 20.3476C236.565 20.6116 236.756 20.8463 236.991 21.0516C237.24 21.2423 237.519 21.3963 237.827 21.5136C238.149 21.6163 238.487 21.6676 238.839 21.6676C239.528 21.6676 240.056 21.5503 240.423 21.3156C240.789 21.0663 241.053 20.7729 241.215 20.4356L243.591 21.7556C243.459 22.0343 243.275 22.3276 243.041 22.6356C242.806 22.9289 242.498 23.2003 242.117 23.4496C241.75 23.6989 241.295 23.9043 240.753 24.0656C240.225 24.2269 239.601 24.3076 238.883 24.3076C238.061 24.3076 237.313 24.1756 236.639 23.9116C235.964 23.6476 235.377 23.2663 234.879 22.7676C234.395 22.2689 234.013 21.6603 233.735 20.9416C233.471 20.2229 233.339 19.4089 233.339 18.4996V18.3676C233.339 17.5316 233.478 16.7689 233.757 16.0796C234.05 15.3903 234.446 14.8036 234.945 14.3196C235.443 13.8356 236.023 13.4616 236.683 13.1976C237.357 12.9189 238.076 12.7796 238.839 12.7796C239.777 12.7796 240.584 12.9483 241.259 13.2856C241.933 13.6083 242.491 14.0263 242.931 14.5396C243.371 15.0383 243.693 15.5956 243.899 16.2116C244.104 16.8129 244.207 17.3996 244.207 17.9716V19.4456H236.199ZM238.817 15.2876C238.113 15.2876 237.541 15.4709 237.101 15.8376C236.661 16.1896 236.375 16.6003 236.243 17.0696H241.391C241.303 16.5563 241.024 16.1309 240.555 15.7936C240.1 15.4563 239.521 15.2876 238.817 15.2876Z" fill="white"/>
</svg>
