<svg width="41" height="40" viewBox="0 0 41 40" fill="none" xmlns="http://www.w3.org/2000/svg">
<g clip-path="url(#clip0_222_5372)">
<path d="M38.2577 1.5625L22.6499 13.1547L25.5362 6.31544L38.2577 1.5625Z" fill="#E2761B" stroke="#E2761B" stroke-width="0.3125" stroke-linecap="round" stroke-linejoin="round"/>
<path d="M2.22632 1.5625L17.7087 13.2645L14.9636 6.31544L2.22632 1.5625Z" fill="#E4761B" stroke="#E4761B" stroke-width="0.3125" stroke-linecap="round" stroke-linejoin="round"/>
<path d="M32.6422 28.4331L28.4854 34.8017L37.3795 37.2488L39.9363 28.5743L32.6422 28.4331Z" fill="#E4761B" stroke="#E4761B" stroke-width="0.3125" stroke-linecap="round" stroke-linejoin="round"/>
<path d="M0.579346 28.5743L3.12052 37.2488L12.0146 34.8017L7.85778 28.4331L0.579346 28.5743Z" fill="#E4761B" stroke="#E4761B" stroke-width="0.3125" stroke-linecap="round" stroke-linejoin="round"/>
<path d="M11.5126 17.6723L9.03418 21.4213L17.8656 21.8134L17.5518 12.3232L11.5126 17.6723Z" fill="#E4761B" stroke="#E4761B" stroke-width="0.3125" stroke-linecap="round" stroke-linejoin="round"/>
<path d="M28.9715 17.6722L22.8538 12.2134L22.6499 21.8134L31.4656 21.4212L28.9715 17.6722Z" fill="#E4761B" stroke="#E4761B" stroke-width="0.3125" stroke-linecap="round" stroke-linejoin="round"/>
<path d="M12.0146 34.8017L17.3166 32.2134L12.7362 28.637L12.0146 34.8017Z" fill="#E4761B" stroke="#E4761B" stroke-width="0.3125" stroke-linecap="round" stroke-linejoin="round"/>
<path d="M23.1675 32.2134L28.4851 34.8017L27.7479 28.637L23.1675 32.2134Z" fill="#E4761B" stroke="#E4761B" stroke-width="0.3125" stroke-linecap="round" stroke-linejoin="round"/>
<path d="M28.4851 34.8016L23.1675 32.2134L23.591 35.68L23.544 37.1389L28.4851 34.8016Z" fill="#D7C1B3" stroke="#D7C1B3" stroke-width="0.3125" stroke-linecap="round" stroke-linejoin="round"/>
<path d="M12.0146 34.8016L16.9558 37.1389L16.9245 35.68L17.3166 32.2134L12.0146 34.8016Z" fill="#D7C1B3" stroke="#D7C1B3" stroke-width="0.3125" stroke-linecap="round" stroke-linejoin="round"/>
<path d="M17.0344 26.3468L12.6108 25.0449L15.7324 23.6174L17.0344 26.3468Z" fill="#233447" stroke="#233447" stroke-width="0.3125" stroke-linecap="round" stroke-linejoin="round"/>
<path d="M23.45 26.3468L24.7519 23.6174L27.8892 25.0449L23.45 26.3468Z" fill="#233447" stroke="#233447" stroke-width="0.3125" stroke-linecap="round" stroke-linejoin="round"/>
<path d="M12.0148 34.8017L12.7677 28.4331L7.85791 28.5743L12.0148 34.8017Z" fill="#CD6116" stroke="#CD6116" stroke-width="0.3125" stroke-linecap="round" stroke-linejoin="round"/>
<path d="M27.7324 28.4331L28.4854 34.8017L32.6422 28.5743L27.7324 28.4331Z" fill="#CD6116" stroke="#CD6116" stroke-width="0.3125" stroke-linecap="round" stroke-linejoin="round"/>
<path d="M31.4658 21.4214L22.6501 21.8135L23.4658 26.3469L24.7678 23.6175L27.905 25.0449L31.4658 21.4214Z" fill="#CD6116" stroke="#CD6116" stroke-width="0.3125" stroke-linecap="round" stroke-linejoin="round"/>
<path d="M12.6109 25.0449L15.7482 23.6175L17.0344 26.3469L17.8658 21.8135L9.03442 21.4214L12.6109 25.0449Z" fill="#CD6116" stroke="#CD6116" stroke-width="0.3125" stroke-linecap="round" stroke-linejoin="round"/>
<path d="M9.03442 21.4214L12.7364 28.6371L12.6109 25.0449L9.03442 21.4214Z" fill="#E4751F" stroke="#E4751F" stroke-width="0.3125" stroke-linecap="round" stroke-linejoin="round"/>
<path d="M27.9049 25.0449L27.748 28.6371L31.4657 21.4214L27.9049 25.0449Z" fill="#E4751F" stroke="#E4751F" stroke-width="0.3125" stroke-linecap="round" stroke-linejoin="round"/>
<path d="M17.8658 21.8135L17.0344 26.3468L18.0697 31.6958L18.305 24.6527L17.8658 21.8135Z" fill="#E4751F" stroke="#E4751F" stroke-width="0.3125" stroke-linecap="round" stroke-linejoin="round"/>
<path d="M22.6501 21.8135L22.2266 24.637L22.4148 31.6958L23.4658 26.3468L22.6501 21.8135Z" fill="#E4751F" stroke="#E4751F" stroke-width="0.3125" stroke-linecap="round" stroke-linejoin="round"/>
<path d="M23.4658 26.3469L22.4148 31.6959L23.1677 32.2135L27.7481 28.6371L27.905 25.0449L23.4658 26.3469Z" fill="#F6851B" stroke="#F6851B" stroke-width="0.3125" stroke-linecap="round" stroke-linejoin="round"/>
<path d="M12.6108 25.0449L12.7363 28.6371L17.3167 32.2135L18.0697 31.6959L17.0344 26.3469L12.6108 25.0449Z" fill="#F6851B" stroke="#F6851B" stroke-width="0.3125" stroke-linecap="round" stroke-linejoin="round"/>
<path d="M23.5441 37.139L23.5911 35.6802L23.199 35.3351H17.2852L16.9245 35.6802L16.9558 37.139L12.0146 34.8018L13.7401 36.2135L17.2382 38.6449H23.246L26.7597 36.2135L28.4852 34.8018L23.5441 37.139Z" fill="#C0AD9E" stroke="#C0AD9E" stroke-width="0.3125" stroke-linecap="round" stroke-linejoin="round"/>
<path d="M23.1677 32.2134L22.4148 31.6958H18.0697L17.3167 32.2134L16.9246 35.6801L17.2853 35.335H23.1991L23.5912 35.6801L23.1677 32.2134Z" fill="#161616" stroke="#161616" stroke-width="0.3125" stroke-linecap="round" stroke-linejoin="round"/>
<path d="M38.9167 13.9076L40.2501 7.5076L38.2579 1.5625L23.1677 12.7625L28.9716 17.6723L37.1756 20.0723L38.9952 17.9547L38.2109 17.39L39.4658 16.2449L38.4932 15.4919L39.7481 14.5351L38.9167 13.9076Z" fill="#763D16" stroke="#763D16" stroke-width="0.3125" stroke-linecap="round" stroke-linejoin="round"/>
<path d="M0.25 7.5076L1.58333 13.9076L0.736275 14.5351L1.99118 15.4919L1.03431 16.2449L2.28922 17.39L1.5049 17.9547L3.30882 20.0723L11.5127 17.6723L17.3167 12.7625L2.22647 1.5625L0.25 7.5076Z" fill="#763D16" stroke="#763D16" stroke-width="0.3125" stroke-linecap="round" stroke-linejoin="round"/>
<path d="M37.1755 20.0724L28.9716 17.6724L31.4657 21.4214L27.748 28.6371L32.6422 28.5743H39.9363L37.1755 20.0724Z" fill="#F6851B" stroke="#F6851B" stroke-width="0.3125" stroke-linecap="round" stroke-linejoin="round"/>
<path d="M11.5127 17.6724L3.30876 20.0724L0.579346 28.5743H7.85778L12.7362 28.6371L9.03425 21.4214L11.5127 17.6724Z" fill="#F6851B" stroke="#F6851B" stroke-width="0.3125" stroke-linecap="round" stroke-linejoin="round"/>
<path d="M22.6499 21.8135L23.1675 12.7625L25.5519 6.31543H14.9636L17.3166 12.7625L17.8656 21.8135L18.0538 24.6684L18.0695 31.6958H22.4146L22.446 24.6684L22.6499 21.8135Z" fill="#F6851B" stroke="#F6851B" stroke-width="0.3125" stroke-linecap="round" stroke-linejoin="round"/>
</g>
<defs>
<clipPath id="clip0_222_5372">
<rect width="40" height="40" fill="white" transform="translate(0.25)"/>
</clipPath>
</defs>
</svg>
