<svg width="21" height="20" viewBox="0 0 21 20" fill="none" xmlns="http://www.w3.org/2000/svg">
<path fill-rule="evenodd" clip-rule="evenodd" d="M7.08434 12.4491C7.19437 12.7763 7.01833 13.1307 6.69116 13.2408C5.63174 13.597 5.06871 14.4864 4.76755 15.3908C4.64796 15.7499 4.57571 16.0956 4.5323 16.3814C4.81815 16.338 5.16388 16.2658 5.52299 16.1462C6.42737 15.845 7.31672 15.282 7.67298 14.2226C7.783 13.8954 8.13742 13.7194 8.4646 13.8294C8.79177 13.9394 8.9678 14.2938 8.85778 14.621C8.32342 16.21 7.00183 16.9712 5.91793 17.3322C5.37037 17.5145 4.85777 17.6045 4.48362 17.6494C4.29564 17.672 4.14023 17.6834 4.02982 17.6892C3.97456 17.6921 3.9304 17.6936 3.89887 17.6944C3.8831 17.6948 3.87048 17.695 3.86119 17.6951L3.84978 17.6952L3.84599 17.6952L3.84459 17.6952L3.844 17.6952C3.84375 17.6952 3.84351 17.6952 3.84351 17.0702C3.21851 17.0702 3.21851 17.07 3.21851 17.0697L3.21851 17.0692L3.21851 17.0678L3.21853 17.064L3.21863 17.0526C3.21874 17.0433 3.21895 17.0306 3.21934 17.0149C3.22013 16.9833 3.22163 16.9392 3.22454 16.8839C3.23035 16.7735 3.24179 16.6181 3.26434 16.4301C3.30922 16.056 3.39924 15.5434 3.58158 14.9958C3.94252 13.9119 4.70371 12.5903 6.29273 12.056C6.6199 11.9459 6.97432 12.122 7.08434 12.4491ZM3.84351 17.0702H3.21851C3.21851 17.4154 3.49833 17.6952 3.84351 17.6952V17.0702Z" fill="white"/>
<path fill-rule="evenodd" clip-rule="evenodd" d="M17.46 3.45406C16.7345 3.34943 14.9488 3.31002 13.1213 5.13753L8.25858 10.0003L10.9138 12.6555L15.7765 7.79271C17.604 5.9652 17.5646 4.17951 17.46 3.45406ZM17.6412 2.21727C16.6435 2.07282 14.4195 2.07157 12.2374 4.25365L6.93275 9.55834C6.81554 9.67555 6.74969 9.83452 6.74969 10.0003C6.74969 10.166 6.81554 10.325 6.93275 10.4422L10.4718 13.9813C10.7159 14.2254 11.1116 14.2254 11.3557 13.9813L16.6604 8.67659C18.8425 6.49452 18.8412 4.27052 18.6968 3.27282C18.6602 3.0058 18.5373 2.75803 18.3466 2.5674C18.156 2.37678 17.9082 2.25382 17.6412 2.21727Z" fill="white"/>
<path fill-rule="evenodd" clip-rule="evenodd" d="M15.3357 8.49243C15.6809 8.49243 15.9607 8.77225 15.9607 9.11743V14.1643L15.9606 14.1732C15.956 14.5015 15.8223 14.8147 15.5887 15.0452L13.0664 17.5753C12.9063 17.7352 12.7058 17.8486 12.4862 17.9035C12.2667 17.9584 12.0364 17.9527 11.8198 17.8869C11.6033 17.8212 11.4087 17.6978 11.2567 17.5301C11.1049 17.3625 11.0014 17.1569 10.9572 16.9351C10.9571 16.935 10.9572 16.9353 10.9572 16.9351L10.301 13.6622C10.2332 13.3237 10.4525 12.9944 10.791 12.9265C11.1294 12.8587 11.4588 13.078 11.5266 13.4165L12.1831 16.6909L14.7107 14.1554V9.11743C14.7107 8.77225 14.9905 8.49243 15.3357 8.49243Z" fill="white"/>
<path fill-rule="evenodd" clip-rule="evenodd" d="M6.7408 4.95319L6.7497 4.95312H11.7966C12.1418 4.95312 12.4216 5.23295 12.4216 5.57812C12.4216 5.9233 12.1418 6.20312 11.7966 6.20312H6.75854L6.75349 6.20828L6.75346 6.20825L4.22314 8.73075L4.22411 8.73094L7.49755 9.38719C7.836 9.45504 8.05536 9.78441 7.98751 10.1229C7.91965 10.4613 7.59029 10.6807 7.25184 10.6128L3.97938 9.95675C3.97919 9.95671 3.979 9.95668 3.97882 9.95664C3.75707 9.91244 3.55146 9.80892 3.38388 9.65711C3.21617 9.50516 3.09285 9.31054 3.02709 9.094C2.96132 8.87746 2.95558 8.64712 3.01047 8.42757C3.06536 8.20802 3.17882 8.00749 3.33875 7.84738L3.33969 7.84644L3.33969 7.84644L5.8688 5.32514C6.0993 5.09151 6.41251 4.95786 6.7408 4.95319Z" fill="white"/>
</svg>
