<svg width="21" height="20" viewBox="0 0 21 20" fill="none" xmlns="http://www.w3.org/2000/svg">
<path fill-rule="evenodd" clip-rule="evenodd" d="M6.87756 12.4491C6.98758 12.7763 6.81154 13.1307 6.48437 13.2408C5.42495 13.597 4.86192 14.4864 4.56076 15.3908C4.44117 15.7499 4.36892 16.0956 4.32551 16.3814C4.61137 16.338 4.95709 16.2658 5.3162 16.1462C6.22058 15.845 7.10993 15.282 7.46619 14.2226C7.57622 13.8954 7.93063 13.7194 8.25781 13.8294C8.58498 13.9394 8.76102 14.2938 8.65099 14.621C8.11663 16.21 6.79504 16.9712 5.71114 17.3322C5.16359 17.5145 4.65098 17.6045 4.27683 17.6494C4.08885 17.672 3.93344 17.6834 3.82304 17.6892C3.76777 17.6921 3.72361 17.6936 3.69208 17.6944C3.67632 17.6948 3.66369 17.695 3.65441 17.6951L3.64299 17.6952L3.63921 17.6952L3.6378 17.6952L3.63722 17.6952C3.63696 17.6952 3.63672 17.6952 3.63672 17.0702C3.01172 17.0702 3.01172 17.07 3.01172 17.0697L3.01172 17.0692L3.01172 17.0678L3.01174 17.064L3.01184 17.0526C3.01196 17.0433 3.01217 17.0306 3.01256 17.0149C3.01334 16.9833 3.01485 16.9392 3.01776 16.8839C3.02357 16.7735 3.035 16.6181 3.05755 16.4301C3.10243 16.056 3.19245 15.5434 3.37479 14.9958C3.73573 13.9119 4.49692 12.5903 6.08594 12.056C6.41312 11.9459 6.76753 12.122 6.87756 12.4491ZM3.63672 17.0702H3.01172C3.01172 17.4154 3.29154 17.6952 3.63672 17.6952V17.0702Z" fill="white"/>
<path fill-rule="evenodd" clip-rule="evenodd" d="M17.2532 3.45406C16.5278 3.34943 14.7421 3.31002 12.9146 5.13753L8.05185 10.0003L10.707 12.6555L15.5698 7.79271C17.3973 5.9652 17.3579 4.17951 17.2532 3.45406ZM17.4345 2.21727C16.4368 2.07282 14.2128 2.07157 12.0307 4.25365L6.72603 9.55834C6.60882 9.67555 6.54297 9.83452 6.54297 10.0003C6.54297 10.166 6.60882 10.325 6.72603 10.4422L10.2651 13.9813C10.5092 14.2254 10.9049 14.2254 11.149 13.9813L16.4537 8.67659C18.6357 6.49452 18.6345 4.27052 18.49 3.27282C18.4535 3.0058 18.3305 2.75803 18.1399 2.5674C17.9493 2.37678 17.7015 2.25382 17.4345 2.21727Z" fill="white"/>
<path fill-rule="evenodd" clip-rule="evenodd" d="M15.129 8.49243C15.4742 8.49243 15.754 8.77225 15.754 9.11743V14.1643L15.754 14.1732C15.7493 14.5015 15.6156 14.8147 15.382 15.0452L12.8598 17.5753C12.6997 17.7352 12.4991 17.8486 12.2796 17.9035C12.06 17.9584 11.8297 17.9527 11.6132 17.8869C11.3966 17.8212 11.202 17.6978 11.05 17.5301C10.8982 17.3625 10.7947 17.1569 10.7505 16.9351C10.7505 16.935 10.7505 16.9353 10.7505 16.9351L10.0943 13.6622C10.0265 13.3237 10.2459 12.9944 10.5843 12.9265C10.9227 12.8587 11.2521 13.078 11.32 13.4165L11.9764 16.6909L14.504 14.1554V9.11743C14.504 8.77225 14.7838 8.49243 15.129 8.49243Z" fill="white"/>
<path fill-rule="evenodd" clip-rule="evenodd" d="M6.53401 4.95319L6.54291 4.95312H11.5898C11.935 4.95312 12.2148 5.23295 12.2148 5.57812C12.2148 5.9233 11.935 6.20312 11.5898 6.20312H6.55175L6.5467 6.20828L6.54667 6.20825L4.01636 8.73075L4.01733 8.73094L7.29076 9.38719C7.62921 9.45504 7.84857 9.78441 7.78072 10.1229C7.71287 10.4613 7.3835 10.6807 7.04506 10.6128L3.77259 9.95675C3.7724 9.95671 3.77222 9.95668 3.77203 9.95664C3.55028 9.91244 3.34467 9.80892 3.1771 9.65711C3.00938 9.50516 2.88607 9.31054 2.8203 9.094C2.75454 8.87746 2.74879 8.64712 2.80368 8.42757C2.85857 8.20802 2.97203 8.00749 3.13197 7.84738L3.1329 7.84644L3.1329 7.84644L5.66201 5.32514C5.89252 5.09151 6.20572 4.95786 6.53401 4.95319Z" fill="white"/>
</svg>
