<svg width="21" height="20" viewBox="0 0 21 20" fill="none" xmlns="http://www.w3.org/2000/svg">
<path fill-rule="evenodd" clip-rule="evenodd" d="M6.58434 12.4491C6.69437 12.7763 6.51833 13.1307 6.19116 13.2408C5.13174 13.597 4.56871 14.4864 4.26755 15.3908C4.14796 15.7499 4.07571 16.0956 4.0323 16.3814C4.31815 16.338 4.66388 16.2658 5.02299 16.1462C5.92737 15.845 6.81672 15.282 7.17298 14.2226C7.283 13.8954 7.63742 13.7194 7.9646 13.8294C8.29177 13.9394 8.4678 14.2938 8.35778 14.621C7.82342 16.21 6.50183 16.9712 5.41793 17.3322C4.87037 17.5145 4.35777 17.6045 3.98362 17.6494C3.79564 17.672 3.64023 17.6834 3.52982 17.6892C3.47456 17.6921 3.4304 17.6936 3.39887 17.6944C3.3831 17.6948 3.37048 17.695 3.36119 17.6951L3.34978 17.6952L3.34599 17.6952L3.34459 17.6952L3.344 17.6952C3.34375 17.6952 3.34351 17.6952 3.34351 17.0702C2.71851 17.0702 2.71851 17.07 2.71851 17.0697L2.71851 17.0692L2.71851 17.0678L2.71853 17.064L2.71863 17.0526C2.71874 17.0433 2.71895 17.0306 2.71934 17.0149C2.72013 16.9833 2.72163 16.9392 2.72454 16.8839C2.73035 16.7735 2.74179 16.6181 2.76434 16.4301C2.80922 16.056 2.89924 15.5434 3.08158 14.9958C3.44252 13.9119 4.20371 12.5903 5.79273 12.056C6.1199 11.9459 6.47432 12.122 6.58434 12.4491ZM3.34351 17.0702H2.71851C2.71851 17.4154 2.99833 17.6952 3.34351 17.6952V17.0702Z" fill="white"/>
<path fill-rule="evenodd" clip-rule="evenodd" d="M16.96 3.45406C16.2346 3.34943 14.4489 3.31002 12.6214 5.13753L7.75864 10.0003L10.4138 12.6555L15.2766 7.79271C17.1041 5.9652 17.0647 4.17951 16.96 3.45406ZM17.1413 2.21727C16.1436 2.07282 13.9196 2.07157 11.7375 4.25365L6.43281 9.55834C6.3156 9.67555 6.24976 9.83452 6.24976 10.0003C6.24976 10.166 6.3156 10.325 6.43281 10.4422L9.97188 13.9813C10.216 14.2254 10.6117 14.2254 10.8558 13.9813L16.1604 8.67659C18.3425 6.49452 18.3413 4.27052 18.1968 3.27282C18.1603 3.0058 18.0373 2.75803 17.8467 2.5674C17.6561 2.37678 17.4083 2.25382 17.1413 2.21727Z" fill="white"/>
<path fill-rule="evenodd" clip-rule="evenodd" d="M14.8357 8.49243C15.1809 8.49243 15.4607 8.77225 15.4607 9.11743V14.1643L15.4606 14.1732C15.456 14.5015 15.3223 14.8147 15.0887 15.0452L12.5664 17.5753C12.4063 17.7352 12.2058 17.8486 11.9862 17.9035C11.7667 17.9584 11.5364 17.9527 11.3198 17.8869C11.1033 17.8212 10.9087 17.6978 10.7567 17.5301C10.6049 17.3625 10.5014 17.1569 10.4572 16.9351C10.4571 16.935 10.4572 16.9353 10.4572 16.9351L9.80101 13.6622C9.73316 13.3237 9.95252 12.9944 10.291 12.9265C10.6294 12.8587 10.9588 13.078 11.0266 13.4165L11.6831 16.6909L14.2107 14.1554V9.11743C14.2107 8.77225 14.4905 8.49243 14.8357 8.49243Z" fill="white"/>
<path fill-rule="evenodd" clip-rule="evenodd" d="M6.2408 4.95319L6.2497 4.95312H11.2966C11.6418 4.95312 11.9216 5.23295 11.9216 5.57812C11.9216 5.9233 11.6418 6.20312 11.2966 6.20312H6.25854L6.25349 6.20828L6.25346 6.20825L3.72314 8.73075L3.72411 8.73094L6.99755 9.38719C7.336 9.45504 7.55536 9.78441 7.48751 10.1229C7.41965 10.4613 7.09029 10.6807 6.75184 10.6128L3.47938 9.95675C3.47919 9.95671 3.479 9.95668 3.47882 9.95664C3.25707 9.91244 3.05146 9.80892 2.88388 9.65711C2.71617 9.50516 2.59285 9.31054 2.52709 9.094C2.46132 8.87746 2.45558 8.64712 2.51047 8.42757C2.56536 8.20802 2.67882 8.00749 2.83875 7.84738L2.83969 7.84644L2.83969 7.84644L5.3688 5.32514C5.5993 5.09151 5.91251 4.95786 6.2408 4.95319Z" fill="white"/>
</svg>
