<svg width="21" height="20" viewBox="0 0 21 20" fill="none" xmlns="http://www.w3.org/2000/svg">
<path fill-rule="evenodd" clip-rule="evenodd" d="M10.707 3.125C8.29079 3.125 6.33203 5.08375 6.33203 7.5C6.33203 9.91625 8.29079 11.875 10.707 11.875C13.1233 11.875 15.082 9.91625 15.082 7.5C15.082 5.08375 13.1233 3.125 10.707 3.125ZM5.08203 7.5C5.08203 4.3934 7.60043 1.875 10.707 1.875C13.8136 1.875 16.332 4.3934 16.332 7.5C16.332 10.6066 13.8136 13.125 10.707 13.125C7.60043 13.125 5.08203 10.6066 5.08203 7.5Z" fill="white"/>
<path fill-rule="evenodd" clip-rule="evenodd" d="M10.7071 13.1245C9.28077 13.1245 7.87955 13.5 6.64431 14.2132C5.40908 14.9265 4.38337 15.9523 3.67031 17.1877C3.49774 17.4866 3.11551 17.5891 2.81656 17.4165C2.51761 17.2439 2.41515 16.8617 2.58772 16.5628C3.41049 15.1374 4.59399 13.9537 6.01926 13.1307C7.44453 12.3078 9.06133 11.8745 10.7071 11.8745C12.3529 11.8745 13.9697 12.3078 15.395 13.1307C16.8203 13.9537 18.0038 15.1374 18.8266 16.5628C18.9991 16.8617 18.8967 17.2439 18.5977 17.4165C18.2988 17.5891 17.9165 17.4866 17.744 17.1877C17.0309 15.9523 16.0052 14.9265 14.77 14.2132C13.5347 13.5 12.1335 13.1245 10.7071 13.1245Z" fill="white"/>
</svg>
