<svg width="21" height="20" viewBox="0 0 21 20" fill="none" xmlns="http://www.w3.org/2000/svg">
<path fill-rule="evenodd" clip-rule="evenodd" d="M10.9138 3.125C8.49757 3.125 6.53882 5.08375 6.53882 7.5C6.53882 9.91625 8.49757 11.875 10.9138 11.875C13.3301 11.875 15.2888 9.91625 15.2888 7.5C15.2888 5.08375 13.3301 3.125 10.9138 3.125ZM5.28882 7.5C5.28882 4.3934 7.80722 1.875 10.9138 1.875C14.0204 1.875 16.5388 4.3934 16.5388 7.5C16.5388 10.6066 14.0204 13.125 10.9138 13.125C7.80722 13.125 5.28882 10.6066 5.28882 7.5Z" fill="white"/>
<path fill-rule="evenodd" clip-rule="evenodd" d="M10.9138 13.1245C9.48747 13.1245 8.08624 13.5 6.85101 14.2132C5.61577 14.9265 4.59007 15.9523 3.877 17.1877C3.70444 17.4866 3.3222 17.5891 3.02326 17.4165C2.72431 17.2439 2.62185 16.8617 2.79441 16.5628C3.61718 15.1374 4.80069 13.9537 6.22596 13.1307C7.65123 12.3078 9.26803 11.8745 10.9138 11.8745C12.5596 11.8745 14.1764 12.3078 15.6017 13.1307C17.027 13.9537 18.2105 15.1374 19.0333 16.5628C19.2058 16.8617 19.1034 17.2439 18.8044 17.4165C18.5055 17.5891 18.1232 17.4866 17.9507 17.1877C17.2376 15.9523 16.2119 14.9265 14.9767 14.2132C13.7414 13.5 12.3402 13.1245 10.9138 13.1245Z" fill="white"/>
</svg>
