<svg width="21" height="20" viewBox="0 0 21 20" fill="none" xmlns="http://www.w3.org/2000/svg">
<path fill-rule="evenodd" clip-rule="evenodd" d="M10.4138 3.125C7.99757 3.125 6.03882 5.08375 6.03882 7.5C6.03882 9.91625 7.99757 11.875 10.4138 11.875C12.8301 11.875 14.7888 9.91625 14.7888 7.5C14.7888 5.08375 12.8301 3.125 10.4138 3.125ZM4.78882 7.5C4.78882 4.3934 7.30722 1.875 10.4138 1.875C13.5204 1.875 16.0388 4.3934 16.0388 7.5C16.0388 10.6066 13.5204 13.125 10.4138 13.125C7.30722 13.125 4.78882 10.6066 4.78882 7.5Z" fill="white"/>
<path fill-rule="evenodd" clip-rule="evenodd" d="M10.4138 13.1245C8.98744 13.1245 7.58621 13.5 6.35098 14.2132C5.11574 14.9265 4.09004 15.9523 3.37697 17.1877C3.20441 17.4866 2.82217 17.5891 2.52323 17.4165C2.22428 17.2439 2.12182 16.8617 2.29438 16.5628C3.11715 15.1374 4.30066 13.9537 5.72593 13.1307C7.1512 12.3078 8.768 11.8745 10.4138 11.8745C12.0596 11.8745 13.6764 12.3078 15.1017 13.1307C16.5269 13.9537 17.7105 15.1374 18.5332 16.5628C18.7058 16.8617 18.6033 17.2439 18.3044 17.4165C18.0054 17.5891 17.6232 17.4866 17.4506 17.1877C16.7376 15.9523 15.7119 14.9265 14.4766 14.2132C13.2414 13.5 11.8402 13.1245 10.4138 13.1245Z" fill="white"/>
</svg>
