<svg width="26" height="26" viewBox="0 0 26 26" fill="none" xmlns="http://www.w3.org/2000/svg">
<path fill-rule="evenodd" clip-rule="evenodd" d="M7.29297 2.5C4.53154 2.5 2.29297 4.73858 2.29297 7.5V18.5C2.29297 21.2614 4.53154 23.5 7.29297 23.5H18.293C21.0544 23.5 23.293 21.2614 23.293 18.5V7.5C23.293 4.73858 21.0544 2.5 18.293 2.5H7.29297ZM0.292969 7.5C0.292969 3.63401 3.42698 0.5 7.29297 0.5H18.293C22.159 0.5 25.293 3.63401 25.293 7.5V18.5C25.293 22.366 22.159 25.5 18.293 25.5H7.29297C3.42698 25.5 0.292969 22.366 0.292969 18.5V7.5Z" fill="#858584"/>
</svg>
