<svg width="14" height="24" viewBox="0 0 14 24" fill="none" xmlns="http://www.w3.org/2000/svg">
<path fill-rule="evenodd" clip-rule="evenodd" d="M10.5907 2.55337C10.588 2.55186 10.5849 2.55139 10.5819 2.55205L10.5797 2.55252C9.37236 2.81412 8.1904 3.18148 7.0475 3.65037C7.04397 3.65182 7.04043 3.65324 7.03689 3.65465L2.8009 17.7996C2.80022 17.8019 2.80012 17.8046 2.80077 17.8069C2.80136 17.809 2.80248 17.8108 2.804 17.8123C4.58369 19.3593 7.07608 20.5949 10.0114 21.3147L10.0125 21.3125L11.525 18.3125C11.7736 17.8194 12.375 17.6211 12.8681 17.8698C13.3613 18.1184 13.5595 18.7197 13.3109 19.2129L11.8026 22.2045C11.6047 22.6132 11.272 22.9414 10.8602 23.1336C10.4467 23.3265 9.97928 23.3703 9.53729 23.2577C6.35535 22.4777 3.55399 21.1161 1.48652 19.3171L1.48134 19.3126C1.19287 19.0581 0.983408 18.7262 0.877726 18.3563C0.772071 17.9865 0.774587 17.5942 0.884973 17.2258C0.885001 17.2257 0.884944 17.2259 0.884973 17.2258L5.12087 3.08117C5.20539 2.78887 5.35674 2.52019 5.56299 2.29638C5.76705 2.07496 6.01927 1.90352 6.30008 1.79524C7.54794 1.28409 8.83825 0.883436 10.1562 0.59788C10.6386 0.492788 11.1428 0.568697 11.573 0.811213C12.0037 1.05409 12.33 1.44708 12.4895 1.91518L12.4925 1.92385L13.4799 4.91136C13.6532 5.43574 13.3687 6.00135 12.8443 6.17468C12.3199 6.34801 11.7543 6.06343 11.581 5.53905L10.596 2.55937C10.595 2.55684 10.5931 2.55473 10.5907 2.55337Z" fill="#858584"/>
</svg>
