<svg width="29" height="22" viewBox="0 0 29 22" fill="none" xmlns="http://www.w3.org/2000/svg">
<path fill-rule="evenodd" clip-rule="evenodd" d="M14.7915 0.0498473L14.7746 0.0498047L14.7118 0.049834C14.6573 0.049956 14.5779 0.0503512 14.4761 0.051432C14.2724 0.0535932 13.9786 0.0584977 13.6136 0.0694528C12.8841 0.0913454 11.8675 0.13749 10.7167 0.234657C8.4403 0.426848 5.54225 0.82571 3.31105 1.67823L3.29635 1.68398C2.85808 1.85941 2.46717 2.13539 2.15515 2.48966C1.84313 2.84393 1.61874 3.26657 1.50008 3.7235L1.49911 3.72726C1.1877 4.94582 0.792969 7.2055 0.792969 10.9999C0.792969 14.7942 1.1877 17.0539 1.49911 18.2725L1.50008 18.2762C1.61874 18.7332 1.84313 19.1558 2.15515 19.5101C2.46717 19.8643 2.85807 20.1403 3.29635 20.3157L3.31105 20.3215C5.54225 21.174 8.4403 21.5729 10.7167 21.7651C11.8675 21.8622 12.8841 21.9084 13.6136 21.9303C13.9786 21.9412 14.2724 21.9461 14.4761 21.9483C14.5779 21.9494 14.6573 21.9498 14.7118 21.9499L14.7746 21.9499L14.7915 21.9499H14.7945L14.8113 21.9499L14.8741 21.9499C14.9286 21.9498 15.008 21.9494 15.1099 21.9483C15.3135 21.9461 15.6074 21.9412 15.9724 21.9303C16.7018 21.9084 17.7184 21.8622 18.8693 21.7651C21.1456 21.5729 24.0437 21.174 26.2749 20.3215L26.2896 20.3157C26.7279 20.1403 27.1188 19.8643 27.4308 19.5101C27.7428 19.1558 27.9672 18.7332 28.0859 18.2762L28.0868 18.2725C28.3982 17.0539 28.793 14.7942 28.793 10.9999C28.793 7.2055 28.3982 4.94582 28.0868 3.72726L28.0859 3.7235C27.9672 3.26657 27.7428 2.84393 27.4308 2.48966C27.1188 2.13539 26.7279 1.85941 26.2896 1.68398L26.2749 1.67823C24.0437 0.82571 21.1456 0.426848 18.8693 0.234657C17.7184 0.13749 16.7018 0.0913454 15.9724 0.0694528C15.6074 0.0584977 15.3135 0.0535932 15.1099 0.051432C15.008 0.0503512 14.9286 0.049956 14.8741 0.049834L14.8113 0.0498047L14.7945 0.0498473H14.7915ZM14.7877 19.9499L14.7984 19.9498L14.8016 19.9499L14.8147 19.9499L14.8697 19.9499C14.9188 19.9498 14.9926 19.9494 15.0886 19.9484C15.2807 19.9464 15.5616 19.9417 15.9124 19.9312C16.6146 19.9101 17.5941 19.8656 18.701 19.7722C20.9371 19.5834 23.5971 19.2018 25.5526 18.4565C25.6974 18.3974 25.8265 18.3056 25.9299 18.1882C26.0344 18.0695 26.1097 17.928 26.1497 17.7751C26.4132 16.7429 26.793 14.6529 26.793 10.9999C26.793 7.34679 26.4132 5.25685 26.1497 4.22464C26.1097 4.07168 26.0344 3.9302 25.9299 3.81154C25.8265 3.69415 25.6974 3.60233 25.5526 3.54326C23.5971 2.79791 20.9371 2.41635 18.701 2.22757C17.5941 2.13411 16.6146 2.08963 15.9124 2.06855C15.5616 2.05802 15.2807 2.05336 15.0886 2.05132C14.9926 2.0503 14.9188 2.04994 14.8697 2.04983L14.8147 2.0498L14.8016 2.04983L14.7987 2.04985L14.7876 2.04991L14.7844 2.04983L14.7713 2.0498L14.7163 2.04983C14.6671 2.04994 14.5933 2.0503 14.4973 2.05132C14.3052 2.05336 14.0244 2.05802 13.6736 2.06855C12.9713 2.08963 11.9918 2.13411 10.8849 2.22757C8.64887 2.41635 5.98887 2.79791 4.03336 3.54327C3.88858 3.60234 3.75942 3.69415 3.65603 3.81154C3.55152 3.9302 3.47626 4.07168 3.43627 4.22464C3.1727 5.25685 2.79297 7.3468 2.79297 10.9999C2.79297 14.6529 3.1727 16.7429 3.43627 17.7751C3.47626 17.928 3.55152 18.0695 3.65603 18.1882C3.75942 18.3056 3.88857 18.3974 4.03335 18.4565C5.98886 19.2018 8.64887 19.5834 10.8849 19.7722C11.9918 19.8656 12.9713 19.9101 13.6736 19.9312C14.0244 19.9417 14.3052 19.9464 14.4973 19.9484C14.5933 19.9494 14.6671 19.9498 14.7163 19.9499L14.7713 19.9499L14.7844 19.9499L14.7877 19.9499Z" fill="#858584"/>
</svg>
