<svg width="29" height="22" viewBox="0 0 29 22" fill="none" xmlns="http://www.w3.org/2000/svg">
<path fill-rule="evenodd" clip-rule="evenodd" d="M14.4985 0.0498473L14.4816 0.0498047L14.4188 0.049834C14.3643 0.049956 14.285 0.0503512 14.1831 0.051432C13.9794 0.0535932 13.6856 0.0584977 13.3206 0.0694528C12.5912 0.0913454 11.5746 0.13749 10.4237 0.234657C8.14733 0.426848 5.24928 0.82571 3.01808 1.67823L3.00338 1.68398C2.56511 1.85941 2.1742 2.13539 1.86218 2.48966C1.55016 2.84393 1.32577 3.26657 1.20711 3.7235L1.20614 3.72726C0.894729 4.94582 0.5 7.2055 0.5 10.9999C0.5 14.7942 0.894729 17.0539 1.20614 18.2725L1.20711 18.2762C1.32577 18.7332 1.55016 19.1558 1.86218 19.5101C2.1742 19.8643 2.56511 20.1403 3.00338 20.3157L3.01808 20.3215C5.24928 21.174 8.14733 21.5729 10.4237 21.7651C11.5746 21.8622 12.5912 21.9084 13.3206 21.9303C13.6856 21.9412 13.9794 21.9461 14.1831 21.9483C14.285 21.9494 14.3643 21.9498 14.4188 21.9499L14.4816 21.9499L14.4985 21.9499H14.5015L14.5184 21.9499L14.5812 21.9499C14.6357 21.9498 14.715 21.9494 14.8169 21.9483C15.0206 21.9461 15.3144 21.9412 15.6794 21.9303C16.4088 21.9084 17.4254 21.8622 18.5763 21.7651C20.8527 21.5729 23.7507 21.174 25.9819 20.3215L25.9966 20.3157C26.4349 20.1403 26.8258 19.8643 27.1378 19.5101C27.4498 19.1558 27.6742 18.7332 27.7929 18.2762L27.7939 18.2725C28.1053 17.0539 28.5 14.7942 28.5 10.9999C28.5 7.2055 28.1053 4.94582 27.7939 3.72726L27.7929 3.7235C27.6742 3.26657 27.4498 2.84393 27.1378 2.48966C26.8258 2.13539 26.4349 1.85941 25.9966 1.68398L25.9819 1.67823C23.7507 0.82571 20.8527 0.426848 18.5763 0.234657C17.4254 0.13749 16.4088 0.0913454 15.6794 0.0694528C15.3144 0.0584977 15.0206 0.0535932 14.8169 0.051432C14.715 0.0503512 14.6357 0.049956 14.5812 0.049834L14.5184 0.0498047L14.5015 0.0498473H14.4985ZM14.4947 19.9499L14.5054 19.9498L14.5086 19.9499L14.5217 19.9499L14.5767 19.9499C14.6259 19.9498 14.6996 19.9494 14.7957 19.9484C14.9877 19.9464 15.2686 19.9417 15.6194 19.9312C16.3216 19.9101 17.3011 19.8656 18.4081 19.7722C20.6441 19.5834 23.3041 19.2018 25.2596 18.4565C25.4044 18.3974 25.5336 18.3056 25.6369 18.1882C25.7414 18.0695 25.8167 17.928 25.8567 17.7751C26.1203 16.7429 26.5 14.6529 26.5 10.9999C26.5 7.34679 26.1203 5.25685 25.8567 4.22464C25.8167 4.07168 25.7414 3.9302 25.6369 3.81154C25.5336 3.69415 25.4044 3.60233 25.2596 3.54326C23.3041 2.79791 20.6441 2.41635 18.4081 2.22757C17.3011 2.13411 16.3216 2.08963 15.6194 2.06855C15.2686 2.05802 14.9877 2.05336 14.7957 2.05132C14.6996 2.0503 14.6259 2.04994 14.5767 2.04983L14.5217 2.0498L14.5086 2.04983L14.5058 2.04985L14.4946 2.04991L14.4914 2.04983L14.4783 2.0498L14.4233 2.04983C14.3741 2.04994 14.3004 2.0503 14.2043 2.05132C14.0123 2.05336 13.7314 2.05802 13.3806 2.06855C12.6784 2.08963 11.6989 2.13411 10.5919 2.22757C8.3559 2.41635 5.6959 2.79791 3.74039 3.54327C3.59561 3.60234 3.46645 3.69415 3.36306 3.81154C3.25855 3.9302 3.1833 4.07168 3.14331 4.22464C2.87974 5.25685 2.5 7.3468 2.5 10.9999C2.5 14.6529 2.87973 16.7429 3.1433 17.7751C3.18329 17.928 3.25855 18.0695 3.36306 18.1882C3.46645 18.3056 3.59561 18.3974 3.74038 18.4565C5.6959 19.2018 8.3559 19.5834 10.5919 19.7722C11.6989 19.8656 12.6784 19.9101 13.3806 19.9312C13.7314 19.9417 14.0123 19.9464 14.2043 19.9484C14.3004 19.9494 14.3741 19.9498 14.4233 19.9499L14.4783 19.9499L14.4914 19.9499L14.4947 19.9499Z" fill="#858584"/>
</svg>
