<svg width="13" height="24" viewBox="0 0 13 24" fill="none" xmlns="http://www.w3.org/2000/svg">
<path fill-rule="evenodd" clip-rule="evenodd" d="M2.01292 0.811214C2.44336 0.568515 2.94804 0.492673 3.43079 0.598117C4.74834 0.883658 6.03829 1.28424 7.28581 1.79524C7.56661 1.90352 7.81883 2.07496 8.02289 2.29638C8.22914 2.52018 8.38048 2.78885 8.46501 3.08115L12.7008 17.2255C12.8113 17.594 12.8138 17.9865 12.7082 18.3563C12.6025 18.7262 12.393 19.0581 12.1045 19.3126L12.0994 19.3171C10.0319 21.1161 7.23053 22.4777 4.0486 23.2577C3.60661 23.3703 3.13917 23.3265 2.7257 23.1336C2.31392 22.9414 1.98113 22.6132 1.78325 22.2044L0.275012 19.2129C0.0263802 18.7197 0.224604 18.1184 0.717758 17.8698C1.21091 17.6211 1.81225 17.8194 2.06088 18.3125L3.57338 21.3125L3.57446 21.3147C6.51236 20.5943 9.00653 19.3571 10.7865 17.8083L11.4429 18.5627L10.7814 17.8128C10.7832 17.8113 10.7845 17.8092 10.7851 17.8069C10.7858 17.8046 10.7858 17.8022 10.7851 17.7999L6.549 3.65465C6.54545 3.65325 6.54192 3.65182 6.53839 3.65037C5.39548 3.18149 4.21352 2.81412 3.00619 2.55253L3.00401 2.55205C3.00101 2.55139 2.99787 2.55186 2.9952 2.55337C2.99279 2.55473 2.99091 2.55684 2.98983 2.55937L2.00492 5.53905C1.83159 6.06343 1.26598 6.34801 0.741604 6.17468C0.217223 6.00135 -0.0673589 5.43574 0.105972 4.91136L1.09635 1.91516C1.25584 1.44707 1.58214 1.0541 2.01292 0.811214Z" fill="#858584"/>
</svg>
