<svg width="28" height="24" viewBox="0 0 28 24" fill="none" xmlns="http://www.w3.org/2000/svg">
<path d="M12.4999 6.00045C12.4999 3.25045 14.8124 0.962955 17.5624 1.00045C18.5255 1.01157 19.4649 1.3006 20.2676 1.8328C21.0703 2.365 21.7023 3.11771 22.0874 4.00045H26.4999L22.4624 8.03795C22.2019 12.0937 20.4065 15.8979 17.4414 18.6773C14.4763 21.4566 10.564 23.0025 6.49994 23.0005C2.49994 23.0005 1.49994 21.5005 1.49994 21.5005C1.49994 21.5005 5.49994 20.0005 7.49994 17.0005C7.49994 17.0005 -0.500057 13.0005 1.49994 2.00045C1.49994 2.00045 6.49994 7.00045 12.4999 8.00045V6.00045Z" stroke="#858584" stroke-width="2" stroke-linecap="round" stroke-linejoin="round"/>
</svg>
