<svg width="14" height="24" viewBox="0 0 14 24" fill="none" xmlns="http://www.w3.org/2000/svg">
<path fill-rule="evenodd" clip-rule="evenodd" d="M2.71995 0.811214C3.15039 0.568515 3.65508 0.492673 4.13782 0.598117C5.45537 0.883658 6.74532 1.28424 7.99284 1.79524C8.27365 1.90352 8.52586 2.07496 8.72992 2.29638C8.93617 2.52018 9.08751 2.78885 9.17204 3.08115L13.4079 17.2255C13.5183 17.594 13.5209 17.9865 13.4152 18.3563C13.3095 18.7262 13.1 19.0581 12.8116 19.3126L12.8064 19.3171C10.7389 21.1161 7.93756 22.4777 4.75563 23.2577C4.31364 23.3703 3.8462 23.3265 3.43273 23.1336C3.02095 22.9414 2.68816 22.6132 2.49028 22.2044L0.982043 19.2129C0.733411 18.7197 0.931636 18.1184 1.42479 17.8698C1.91794 17.6211 2.51928 17.8194 2.76791 18.3125L4.28041 21.3125L4.28149 21.3147C7.21939 20.5943 9.71356 19.3571 11.4936 17.8083L12.15 18.5627L11.4884 17.8128C11.4902 17.8113 11.4915 17.8092 11.4921 17.8069C11.4928 17.8046 11.4928 17.8022 11.4921 17.7999L7.25603 3.65465C7.25248 3.65325 7.24895 3.65182 7.24542 3.65037C6.10252 3.18149 4.92055 2.81412 3.71322 2.55253L3.71104 2.55205C3.70804 2.55139 3.70491 2.55186 3.70223 2.55337C3.69982 2.55473 3.69794 2.55684 3.69686 2.55937L2.71195 5.53905C2.53862 6.06343 1.97302 6.34801 1.44864 6.17468C0.924254 6.00135 0.639672 5.43574 0.813003 4.91136L1.80338 1.91516C1.96287 1.44707 2.28918 1.0541 2.71995 0.811214Z" fill="#858584"/>
</svg>
