<svg width="14" height="24" viewBox="0 0 14 24" fill="none" xmlns="http://www.w3.org/2000/svg">
<path fill-rule="evenodd" clip-rule="evenodd" d="M10.2977 2.55337C10.295 2.55186 10.2919 2.55139 10.2889 2.55205L10.2867 2.55252C9.07939 2.81412 7.89743 3.18148 6.75453 3.65037C6.751 3.65182 6.74746 3.65324 6.74392 3.65465L2.50794 17.7996C2.50725 17.8019 2.50715 17.8046 2.50781 17.8069C2.5084 17.809 2.50951 17.8108 2.51103 17.8123C4.29072 19.3593 6.78311 20.5949 9.71846 21.3147L9.71954 21.3125L11.232 18.3125C11.4807 17.8194 12.082 17.6211 12.5752 17.8698C13.0683 18.1184 13.2665 18.7197 13.0179 19.2129L11.5097 22.2045C11.3118 22.6132 10.979 22.9414 10.5672 23.1336C10.1537 23.3265 9.68631 23.3703 9.24432 23.2577C6.06239 22.4777 3.26102 21.1161 1.19355 19.3171L1.18837 19.3126C0.899904 19.0581 0.690439 18.7262 0.584757 18.3563C0.479102 17.9865 0.481619 17.5942 0.592004 17.2258C0.592032 17.2257 0.591976 17.2259 0.592004 17.2258L4.8279 3.08117C4.91243 2.78887 5.06377 2.52019 5.27003 2.29638C5.47408 2.07496 5.7263 1.90352 6.00711 1.79524C7.25497 1.28409 8.54529 0.883436 9.86321 0.59788C10.3456 0.492788 10.8499 0.568697 11.28 0.811213C11.7108 1.05409 12.037 1.44708 12.1965 1.91518L12.1995 1.92385L13.1869 4.91136C13.3603 5.43574 13.0757 6.00135 12.5513 6.17468C12.0269 6.34801 11.4613 6.06343 11.288 5.53905L10.3031 2.55937C10.302 2.55684 10.3001 2.55473 10.2977 2.55337Z" fill="#858584"/>
</svg>
