<svg width="28" height="24" viewBox="0 0 28 24" fill="none" xmlns="http://www.w3.org/2000/svg">
<path d="M12.7929 6.00045C12.7929 3.25045 15.1054 0.962955 17.8554 1.00045C18.8185 1.01157 19.7578 1.3006 20.5606 1.8328C21.3633 2.365 21.9952 3.11771 22.3804 4.00045H26.7929L22.7554 8.03795C22.4949 12.0937 20.6995 15.8979 17.7344 18.6773C14.7693 21.4566 10.857 23.0025 6.79291 23.0005C2.79291 23.0005 1.79291 21.5005 1.79291 21.5005C1.79291 21.5005 5.79291 20.0005 7.79291 17.0005C7.79291 17.0005 -0.207089 13.0005 1.79291 2.00045C1.79291 2.00045 6.79291 7.00045 12.7929 8.00045V6.00045Z" stroke="#858584" stroke-width="2" stroke-linecap="round" stroke-linejoin="round"/>
</svg>
