<svg width="41" height="40" viewBox="0 0 41 40" fill="none" xmlns="http://www.w3.org/2000/svg">
<g clip-path="url(#clip0_222_2992)">
<path d="M20.25 40C31.2957 40 40.25 31.0457 40.25 20C40.25 8.9543 31.2957 0 20.25 0C9.2043 0 0.25 8.9543 0.25 20C0.25 31.0457 9.2043 40 20.25 40Z" fill="url(#paint0_radial_222_2992)"/>
<path d="M12.8086 15.4473C16.832 11.5176 23.3633 11.5176 27.3867 15.4473L27.8711 15.9238C28.0742 16.1191 28.0742 16.4395 27.8711 16.6348L26.2148 18.252C26.1133 18.3535 25.9492 18.3535 25.8477 18.252L25.1836 17.6035C22.3711 14.8613 17.8242 14.8613 15.0117 17.6035L14.3008 18.2988C14.1992 18.4004 14.0352 18.4004 13.9336 18.2988L12.2773 16.6816C12.0742 16.4863 12.0742 16.166 12.2773 15.9707L12.8086 15.4473ZM30.8164 18.791L32.293 20.2285C32.4961 20.4238 32.4961 20.7441 32.293 20.9395L25.6445 27.4316C25.4414 27.627 25.1133 27.627 24.918 27.4316L20.1992 22.8223C20.1523 22.7754 20.0664 22.7754 20.0195 22.8223L15.3008 27.4316C15.0977 27.627 14.7695 27.627 14.5742 27.4316L7.90234 20.9395C7.69922 20.7441 7.69922 20.4238 7.90234 20.2285L9.37891 18.791C9.58203 18.5957 9.91016 18.5957 10.1055 18.791L14.8242 23.4004C14.8711 23.4473 14.957 23.4473 15.0039 23.4004L19.7227 18.791C19.9258 18.5957 20.2539 18.5957 20.4492 18.791L25.168 23.4004C25.2148 23.4473 25.3008 23.4473 25.3477 23.4004L30.0664 18.791C30.2852 18.5957 30.6133 18.5957 30.8164 18.791Z" fill="white"/>
</g>
<defs>
<radialGradient id="paint0_radial_222_2992" cx="0" cy="0" r="1" gradientUnits="userSpaceOnUse" gradientTransform="translate(0.250124 20.0006) scale(40)">
<stop stop-color="#5D9DF6"/>
<stop offset="1" stop-color="#006FFF"/>
</radialGradient>
<clipPath id="clip0_222_2992">
<rect width="40" height="40" fill="white" transform="translate(0.25)"/>
</clipPath>
</defs>
</svg>
